<svg width="184" height="76" viewBox="0 0 184 76" fill="none" xmlns="http://www.w3.org/2000/svg">
<path d="M96.6255 36.3831C96.2978 36.5311 95.9425 36.6087 95.5828 36.6109C95.0294 36.65 94.483 36.4707 94.0603 36.1115C93.8795 35.9583 93.7296 35.7721 93.6185 35.5628C93.5091 35.3484 93.4437 35.1142 93.4265 34.8741H99.6219C99.6931 34.2598 99.6302 33.6373 99.4377 33.0495C99.2473 32.4615 98.9312 31.9221 98.5108 31.4692C97.7003 30.6878 96.6178 30.2528 95.4923 30.2565C94.367 30.2528 93.2844 30.6878 92.4744 31.4692C92.0832 31.8517 91.7758 32.3114 91.5717 32.8191C91.3718 33.3279 91.2784 33.8723 91.2974 34.4186C91.2783 34.9677 91.3717 35.5148 91.5717 36.0265C91.7692 36.5394 92.0699 37.0063 92.4552 37.3983C92.8444 37.7924 93.3116 38.1009 93.8271 38.3037C94.3427 38.5068 94.8948 38.6002 95.4487 38.5781C96.385 38.5755 97.2981 38.2821 98.0606 37.7385C98.7254 37.293 99.2214 36.6369 99.468 35.8755H97.1966C97.0581 36.0953 96.86 36.2714 96.6255 36.3831ZM94.2194 32.4432C94.5723 32.1745 95.0079 32.0376 95.4514 32.0563C95.884 32.0364 96.3121 32.1556 96.6724 32.3966C97.0255 32.667 97.2677 33.0574 97.3527 33.494H93.5609C93.6485 33.0766 93.882 32.7041 94.2194 32.4432Z" fill="#333333"/>
<path d="M101.427 37.3819C101.817 37.7721 102.284 38.0767 102.799 38.2763C103.312 38.4779 103.861 38.5713 104.412 38.5507C105.335 38.5747 106.242 38.3047 107.002 37.7797C107.694 37.327 108.207 36.6482 108.453 35.8591H106.167C106.034 36.1211 105.815 36.33 105.548 36.4518C105.22 36.6025 104.863 36.6802 104.502 36.6795C103.952 36.7019 103.412 36.5245 102.982 36.1801C102.626 35.8577 102.407 35.4108 102.371 34.9318H108.566C108.631 34.3178 108.566 33.6968 108.374 33.1099C108.182 32.5233 107.869 31.9838 107.455 31.5268C106.871 30.9375 106.127 30.5337 105.315 30.3663C104.503 30.1964 103.661 30.2699 102.892 30.5775C102.121 30.8843 101.459 31.4123 100.988 32.0948C100.515 32.7749 100.253 33.5795 100.236 34.4077C100.217 34.9585 100.31 35.5075 100.51 36.021C100.72 36.5323 101.031 36.9955 101.427 37.3819ZM103.194 32.4185C103.534 32.1588 103.954 32.025 104.382 32.0399C104.796 32.0284 105.204 32.1474 105.548 32.3801C105.915 32.6415 106.166 33.0348 106.25 33.4776H102.505C102.606 33.0581 102.849 32.6868 103.194 32.4268V32.4185Z" fill="#333333"/>
<path d="M111.834 34.7262L115.082 38.3808L117.76 38.2903L113.878 33.9333L117.033 30.3473H114.399L111.834 33.2748V26.465H109.565V38.3808H111.834V34.7262Z" fill="#333333"/>
<path d="M89.3852 42.9467L87.1134 48.0334L84.8444 42.9467H82.3477L86.0023 50.8924H88.2493L91.904 42.9467H89.3852Z" fill="#333333"/>
<path d="M96.6255 48.8702C96.3122 49.0382 95.9613 49.125 95.6048 49.1226C95.0542 49.145 94.5141 48.9666 94.0851 48.6205C93.9021 48.4687 93.751 48.2823 93.6405 48.0718C93.5304 47.8577 93.465 47.6234 93.4485 47.3831H99.6468C99.7141 46.7657 99.6501 46.1409 99.457 45.5503C99.265 44.9596 98.9499 44.4162 98.5323 43.9562C97.7224 43.1749 96.6399 42.7399 95.5144 42.7436C94.3891 42.7399 93.3065 43.1749 92.4964 43.9562C92.1042 44.339 91.795 44.7986 91.5883 45.3061C91.3808 45.8143 91.2799 46.3597 91.292 46.9085C91.273 47.4611 91.3663 48.0117 91.5663 48.5272C91.7702 49.0408 92.0763 49.5076 92.4663 49.8991C92.8567 50.2917 93.3236 50.5999 93.8381 50.8045C94.3547 51.0075 94.908 51.101 95.4625 51.0789C96.3982 51.0759 97.3097 50.7826 98.0716 50.2393C98.7331 49.79 99.2275 49.1352 99.4791 48.3763H97.1966C97.0603 48.5945 96.8611 48.7666 96.6255 48.8702ZM94.2442 44.922C94.5982 44.6618 95.0288 44.5267 95.468 44.5379C95.8835 44.5261 96.2912 44.6536 96.6255 44.9001C96.988 45.1683 97.2319 45.5667 97.3064 46.0113H93.5857C93.6652 45.5801 93.8994 45.1928 94.2442 44.922Z" fill="#333333"/>
<path d="M106.203 42.977C105.81 42.813 105.384 42.7408 104.958 42.7657C104.517 42.7355 104.077 42.8205 103.679 43.0126C103.281 43.2026 102.939 43.4929 102.686 43.855V42.9468H100.417V50.9035L102.612 50.7883V46.8977C102.567 46.2949 102.745 45.6965 103.112 45.2158C103.266 45.0312 103.46 44.884 103.679 44.7851C103.9 44.686 104.141 44.6399 104.382 44.6507C104.581 44.6398 104.779 44.6775 104.961 44.7604C105.144 44.8427 105.304 44.9678 105.427 45.1253C105.682 45.5366 105.807 46.0141 105.789 46.4972V50.7856H108.058V46.2392C108.097 45.3243 107.798 44.4272 107.219 43.7178C106.941 43.3979 106.594 43.1447 106.203 42.977Z" fill="#333333"/>
<path d="M111.837 40.6741H109.565V42.9431H108.336V44.8636H109.565V48.1314C109.539 48.5278 109.601 48.9249 109.746 49.2948C109.892 49.6635 110.117 49.9952 110.407 50.266C111.041 50.793 111.854 51.0537 112.676 50.9931C113.143 51.0074 113.61 50.9539 114.062 50.834V48.9134C113.776 49.01 113.476 49.0555 113.176 49.0478C112.994 49.0854 112.805 49.0769 112.627 49.0231C112.448 48.9724 112.285 48.8781 112.152 48.7487C112.023 48.6145 111.929 48.4506 111.878 48.2713C111.824 48.0933 111.816 47.9047 111.853 47.7226V44.8527H114.122V42.9321H111.853L111.837 40.6741Z" fill="#333333"/>
<path d="M119.986 46.8967C120.024 47.491 119.865 48.0813 119.533 48.5759C119.399 48.7614 119.221 48.9104 119.015 49.0094C118.808 49.1099 118.58 49.1562 118.35 49.1438C117.445 49.1438 116.979 48.5292 116.979 47.2589V43.0144H114.709V47.5552C114.664 48.4769 114.944 49.3853 115.502 50.1205C115.778 50.4488 116.128 50.7066 116.523 50.8723C116.918 51.0383 117.347 51.107 117.774 51.0726C118.205 51.0986 118.634 51.0116 119.02 50.8202C119.405 50.6285 119.734 50.3402 119.975 49.9834V50.8915H122.247V42.9348H119.975L119.986 46.8967Z" fill="#333333"/>
<path d="M127.591 42.8688C127.159 42.8717 126.739 43.0067 126.386 43.2556C126.043 43.4971 125.783 43.8367 125.637 44.2296V42.9593H123.368V50.916L125.637 50.8941V47.0776C125.607 46.5257 125.768 45.9804 126.093 45.5329C126.24 45.349 126.427 45.2017 126.641 45.1021C126.858 45.0034 127.095 44.9565 127.333 44.9649C127.672 44.9669 128.008 45.0205 128.331 45.1241V42.8688C128.086 42.8312 127.836 42.8312 127.591 42.8688Z" fill="#333333"/>
<path d="M133.638 48.8699C133.324 49.0378 132.973 49.1245 132.617 49.1224C132.058 49.15 131.508 48.9713 131.072 48.6203C130.715 48.2985 130.496 47.8513 130.46 47.3719H136.656C136.725 46.7547 136.661 46.1298 136.469 45.5391C136.277 44.9486 135.962 44.4054 135.544 43.945C134.735 43.1637 133.652 42.7286 132.527 42.7323C131.401 42.7298 130.319 43.1647 129.509 43.945C128.935 44.535 128.548 45.28 128.395 46.0879C128.241 46.8962 128.328 47.7317 128.644 48.4913C128.962 49.2498 129.494 49.8992 130.175 50.3597C130.859 50.8171 131.66 51.0651 132.482 51.0731C133.419 51.0702 134.332 50.7768 135.095 50.2336C135.756 49.7842 136.251 49.1295 136.502 48.3706H134.197C134.065 48.5892 133.87 48.7631 133.638 48.8699ZM131.254 44.9218C131.608 44.6618 132.04 44.5267 132.48 44.5377C132.895 44.5301 133.301 44.6572 133.638 44.8998C134 45.1681 134.244 45.5665 134.318 46.011H130.595C130.677 45.5807 130.911 45.1941 131.254 44.9218Z" fill="#333333"/>
<path d="M143.194 47.0781C142.735 46.6226 142.15 46.3141 141.515 46.1919L140.107 45.8078C139.495 45.6706 139.199 45.421 139.199 45.0807C139.2 44.9903 139.223 44.9014 139.268 44.8228C139.311 44.743 139.373 44.6751 139.449 44.6253C139.669 44.5181 139.91 44.4636 140.154 44.4661C140.4 44.442 140.645 44.5127 140.84 44.6637C141.035 44.8163 141.163 45.0387 141.197 45.2837H143.468C143.452 44.926 143.359 44.5759 143.194 44.2576C143.026 43.9363 142.79 43.6555 142.503 43.4345C141.845 42.9552 141.043 42.7151 140.231 42.7541C139.42 42.7266 138.624 42.9656 137.962 43.4345C137.693 43.6245 137.475 43.8768 137.325 44.1698C137.174 44.4613 137.097 44.7854 137.1 45.1137C137.092 45.6696 137.267 46.2127 137.6 46.6584C137.99 47.1274 138.524 47.4545 139.12 47.5885L140.618 47.9534C140.889 48.0193 141.149 48.1257 141.389 48.2689C141.465 48.3224 141.526 48.3954 141.564 48.4802C141.606 48.5652 141.624 48.66 141.617 48.7545C141.617 49.1853 141.276 49.3911 140.574 49.3911C140.245 49.4085 139.918 49.3211 139.641 49.1414C139.515 49.0538 139.411 48.9383 139.336 48.8039C139.261 48.6701 139.218 48.5208 139.21 48.3677H136.941C136.951 48.7515 137.052 49.1276 137.235 49.4652C137.416 49.7999 137.672 50.0882 137.984 50.3075C138.721 50.8425 139.617 51.114 140.527 51.0785C141.332 51.0889 142.122 50.8596 142.796 50.42C143.087 50.2268 143.325 49.9636 143.488 49.6545C143.651 49.3455 143.735 49 143.729 48.6503C143.743 48.0793 143.554 47.522 143.194 47.0781Z" fill="#333333"/>
<path d="M87.5 39.5778C87.3292 39.7437 87.1267 39.8734 86.9046 39.9592C86.6829 40.0461 86.4456 40.0863 86.2077 40.0772C85.8213 40.114 85.4338 40.0172 85.1102 39.8028C84.7823 39.5891 84.5388 39.2681 84.4215 38.8946H82.3116C82.3297 39.3341 82.4419 39.7645 82.6409 40.1567C82.84 40.5482 83.1206 40.8926 83.464 41.1664C84.244 41.7417 85.1951 42.0374 86.1638 42.006C87.2648 42.0289 88.3342 41.6372 89.1599 40.9085C89.5571 40.523 89.8644 40.0546 90.0598 39.5367C90.257 39.0201 90.3376 38.4664 90.2958 37.9151V30.4359H88.0268V31.3468C87.7857 31.0066 87.4552 30.7398 87.072 30.5758C86.6443 30.3708 86.1742 30.2702 85.7001 30.2822C85.2002 30.2738 84.7042 30.373 84.246 30.573C83.7885 30.7725 83.3789 31.0671 83.0442 31.4373C82.3194 32.2117 81.9256 33.2385 81.9468 34.299C81.9235 35.3524 82.3181 36.3724 83.0442 37.1359C83.3782 37.5069 83.788 37.8017 84.246 38.0002C84.7041 38.201 85.2 38.3012 85.7001 38.2938C86.1736 38.3003 86.6426 38.1999 87.072 38.0002C87.4518 37.841 87.7817 37.5822 88.0268 37.2512V38.1813C88.04 38.4356 87.9999 38.6898 87.9088 38.9276C87.8202 39.1709 87.6808 39.3925 87.5 39.5778ZM87.8457 35.583C87.6672 35.8696 87.4192 36.1063 87.1246 36.2713C86.8301 36.4364 86.4987 36.5242 86.1611 36.5268C85.6174 36.5146 85.1005 36.2885 84.7225 35.8977C84.3445 35.5068 84.1358 34.9826 84.1417 34.4389V34.4005C84.138 34.1348 84.1864 33.871 84.2844 33.624C84.2849 33.6176 84.2849 33.6112 84.2844 33.6048C84.4275 33.2245 84.6823 32.8963 85.0152 32.6632C85.3482 32.4302 85.7437 32.3032 86.1501 32.2988C86.4956 32.2981 86.8355 32.387 87.1365 32.5567C87.4375 32.7265 87.6894 32.9713 87.8677 33.2673C87.9387 33.3766 87.9994 33.4924 88.0487 33.613C88.1478 33.8633 88.1936 34.1315 88.1831 34.4005C88.1939 34.6715 88.1472 34.9417 88.046 35.1934C87.9923 35.3252 87.9252 35.4512 87.8457 35.5693V35.583Z" fill="#333333"/>
<path fill-rule="evenodd" clip-rule="evenodd" d="M67.8744 25.4616C64.8074 25.6828 64.6341 25.8562 64.4099 28.95C64.1917 25.8562 64.0392 25.6828 60.9483 25.4616C64.0392 25.2643 64.2126 25.0909 64.4099 22C64.6341 25.0162 64.8074 25.2643 67.8744 25.4616ZM70.1558 43.3703C73.2467 43.173 73.4201 42.9996 73.6174 39.9087C73.8416 42.9996 74.012 43.173 77.0789 43.3703C74.012 43.5915 73.8416 43.7648 73.6174 46.8318C73.4201 43.7648 73.2467 43.5915 70.1558 43.3703ZM69.9519 30.3579L69.4139 30.582C69.2642 30.3546 69.0399 30.1866 68.7796 30.1069C68.5193 30.0272 68.2393 30.0409 67.988 30.1456L65.2588 31.2845C65.7725 31.8806 66.2326 32.5208 66.6339 33.1976C66.2642 33.4246 65.916 33.6847 65.5936 33.9749C65.8558 34.4608 66.0932 34.9596 66.305 35.4695C66.5113 35.9657 66.6936 36.4679 66.8521 36.9641C67.2826 36.9408 67.71 36.8768 68.1285 36.7728C68.3268 37.5342 68.4589 38.3113 68.5231 39.0955L71.2493 37.9565C71.5009 37.8527 71.7081 37.6639 71.8348 37.423C71.9615 37.1821 71.9998 36.9045 71.9428 36.6383L72.4839 36.4111C75.2281 35.2694 77.4064 33.0845 78.5401 30.3369C75.7877 29.2055 72.6987 29.213 69.9519 30.3579ZM74.391 32.8718C74.3692 33.204 74.2495 33.5223 74.0471 33.7866C73.8446 34.0509 73.5684 34.2493 73.2534 34.3569C72.9383 34.4645 72.5984 34.4763 72.2766 34.391C71.9549 34.3057 71.6655 34.127 71.4451 33.8775C71.2247 33.628 71.0831 33.3188 71.0382 32.9889C70.9932 32.659 71.0469 32.3233 71.1926 32.0239C71.3382 31.7245 71.5692 31.4749 71.8564 31.3067C72.1437 31.1384 72.4744 31.0589 72.8067 31.0782C73.0288 31.0912 73.2461 31.1479 73.4461 31.2453C73.6462 31.3425 73.825 31.4785 73.9722 31.6452C74.1195 31.8119 74.2323 32.0061 74.3042 32.2167C74.3761 32.4272 74.4056 32.6498 74.391 32.8718ZM64.3834 34.6592C64.5777 35.0269 64.754 35.4065 64.9125 35.7951C65.2399 36.5821 65.4824 37.4019 65.6359 38.2403C66.1986 41.2846 65.65 44.4297 64.0898 47.1036C62.5296 49.7776 60.0616 51.8028 57.1345 52.8108C54.2074 53.8189 51.0157 53.7429 48.1399 52.5967C45.2641 51.4505 42.8952 49.3101 41.4641 46.565C40.0329 43.8198 39.6346 40.6522 40.3415 37.6381C41.0485 34.6241 42.8137 31.9639 45.3162 30.1414C47.8186 28.3189 50.8921 27.455 53.9777 27.707C57.0632 27.959 59.9559 29.3101 62.1295 31.5145C61.3493 32.0347 60.5541 32.5219 59.7381 32.9703C57.9929 31.404 55.7629 30.4845 53.4209 30.3655C51.079 30.2465 48.7672 30.9354 46.8723 32.3166C44.9774 33.698 43.6143 35.6881 43.011 37.9541C42.4076 40.2201 42.6007 42.6246 43.5578 44.7653C44.5149 46.906 46.1781 48.6531 48.2691 49.7145C50.3602 50.7758 52.7522 51.087 55.0451 50.5959C57.3381 50.1048 59.3929 48.8412 60.8658 47.0166C62.3387 45.192 63.1404 42.9169 63.1369 40.572V40.1505C63.9993 39.6432 64.728 38.937 65.2622 38.0909C64.6063 38.6477 63.8733 39.1068 63.0861 39.454C57.2749 41.9142 50.558 42.6406 44.7618 40.001C46.5263 40.4493 48.3486 40.6267 50.1664 40.5271C53.6489 40.3274 57.0396 39.3335 60.0788 37.6216C60.8052 37.1971 61.5137 36.7696 62.2012 36.3003C62.823 35.8758 63.4208 35.4274 64.0187 34.9581C64.0429 34.9372 64.0837 34.905 64.1311 34.8675C64.2126 34.8032 64.3135 34.7234 64.3834 34.6592Z" fill="#333333"/>
</svg>
