<svg width="307" height="70" viewBox="0 0 307 70" fill="none" xmlns="http://www.w3.org/2000/svg">
<path d="M104.577 30.6144C103.211 29.2847 101.414 28.6018 99.2222 28.6018C96.7424 28.6018 94.8018 29.5722 93.4361 31.4769V22.061H89.5547V47.2179H93.4361V37.9099C93.4361 36.077 93.8672 34.6395 94.7298 33.5613C95.5924 32.4832 96.8142 31.9441 98.3595 31.9441C99.7971 31.9441 100.875 32.4113 101.63 33.3098C102.385 34.2442 102.78 35.5739 102.78 37.299V47.2179H106.661V37.0832C106.661 34.1363 105.943 31.9801 104.577 30.6144Z" fill="#333333"/>
<path d="M126.328 28.8174H122.446V37.9457C122.446 39.8504 122.015 41.3599 121.189 42.4381C120.326 43.5162 119.176 44.0553 117.703 44.0553C116.265 44.0553 115.223 43.5881 114.504 42.6537C113.785 41.7193 113.426 40.3536 113.426 38.5567V28.8174H109.544V38.9521C109.544 41.9349 110.191 44.0913 111.557 45.421C112.887 46.7865 114.648 47.4335 116.804 47.4335C119.176 47.4335 121.081 46.607 122.482 44.8819L122.914 47.2179H126.328V28.8174Z" fill="#333333"/>
<path d="M132.884 41.1444H129.146C129.182 43.121 129.973 44.6663 131.482 45.7804C132.992 46.8945 135.004 47.4336 137.484 47.4336C138.922 47.4336 140.251 47.218 141.437 46.7508C142.588 46.2836 143.522 45.6008 144.205 44.7382C144.852 43.8756 145.211 42.8336 145.211 41.6834C145.211 40.3897 144.888 39.3833 144.241 38.6287C143.594 37.8739 142.731 37.3349 141.653 36.9756C140.575 36.6161 139.245 36.3646 137.664 36.1849C136.478 36.0411 135.615 35.9333 135.112 35.8255C134.573 35.7177 134.142 35.538 133.782 35.2505C133.423 34.963 133.279 34.5676 133.279 33.9926C133.279 33.2739 133.603 32.6629 134.322 32.2316C135.004 31.8004 135.903 31.5848 137.053 31.5848C138.167 31.5848 139.101 31.8723 139.856 32.4113C140.575 32.9504 141.006 33.6332 141.114 34.4598H144.888C144.744 32.591 143.953 31.1535 142.516 30.1113C141.078 29.105 139.173 28.5659 136.873 28.5659C135.436 28.5659 134.178 28.8175 133.064 29.2847C131.95 29.7878 131.087 30.4707 130.44 31.3332C129.793 32.1957 129.506 33.202 129.506 34.3161C129.506 35.538 129.793 36.4724 130.44 37.1911C131.087 37.9099 131.914 38.4131 132.956 38.7364C133.998 39.0599 135.328 39.3115 136.945 39.4912C138.095 39.6349 138.958 39.7787 139.533 39.9224C140.108 40.0663 140.539 40.2819 140.898 40.5693C141.222 40.8928 141.402 41.36 141.402 41.971C141.402 42.7257 141.006 43.3366 140.287 43.7679C139.569 44.1991 138.598 44.4148 137.448 44.4148C136.119 44.4148 135.04 44.1272 134.214 43.5163C133.387 42.9054 132.956 42.1148 132.884 41.1444Z" fill="#333333"/>
<path d="M149.186 32.2316V42.2224C149.186 43.9474 149.582 45.2054 150.372 45.9961C151.163 46.8226 152.457 47.2179 154.218 47.2179H157.955V43.8037H155.008C154.29 43.8037 153.822 43.66 153.535 43.3725C153.247 43.0849 153.104 42.5459 153.104 41.8271V32.2316H157.524V28.8174H153.104V23.6782H149.186V28.8174H145.988V32.2316H149.186Z" fill="#333333"/>
<path d="M160.756 22.061V47.2179H164.638V22.061H160.756Z" fill="#333333"/>
<path d="M168.514 33.094C167.759 34.5315 167.4 36.1847 167.4 38.0535C167.4 39.9222 167.759 41.5756 168.55 42.9771C169.341 44.4147 170.419 45.4928 171.856 46.2834C173.294 47.0741 174.947 47.4334 176.888 47.4334C179.08 47.4334 180.913 46.8585 182.386 45.6365C183.86 44.4505 184.758 42.9052 185.117 41.0363H181.236C180.949 42.0786 180.41 42.8692 179.619 43.4443C178.792 44.0194 177.786 44.2708 176.6 44.2708C175.091 44.2708 173.869 43.8036 172.97 42.8692C172.036 41.9349 171.533 40.677 171.461 39.0597V38.8441H185.333C185.405 38.3409 185.441 37.8737 185.441 37.3707C185.405 35.6097 185.01 34.0643 184.219 32.7346C183.428 31.4408 182.386 30.3986 181.021 29.6798C179.655 28.9611 178.11 28.6017 176.348 28.6017C174.588 28.6017 173.042 28.997 171.676 29.7877C170.311 30.5783 169.269 31.6565 168.514 33.094ZM181.488 36.005H171.605C171.748 34.7112 172.252 33.705 173.186 32.9143C174.12 32.1237 175.199 31.7283 176.492 31.7283C177.858 31.7283 178.972 32.1237 179.871 32.8784C180.769 33.6331 181.308 34.6753 181.488 36.005Z" fill="#333333"/>
<path d="M195.949 28.8175H192.751V32.2316H195.949V47.2177H199.866V32.2316H204.79V28.8175H199.866V27.2722C199.866 26.6612 199.975 26.194 200.262 25.9065C200.55 25.619 200.98 25.4753 201.627 25.4753H204.827V22.0612H201.089C199.328 22.0612 198.034 22.4924 197.207 23.319C196.345 24.1456 195.949 25.3674 195.949 26.9847V28.8175Z" fill="#333333"/>
<path d="M224.305 28.8175H220.423V37.9457C220.423 39.8505 219.993 41.3599 219.166 42.438C218.304 43.5161 217.154 44.0552 215.68 44.0552C214.242 44.0552 213.2 43.588 212.482 42.6536C211.763 41.7192 211.403 40.3535 211.403 38.5566V28.8175H207.521V38.952C207.521 41.9348 208.168 44.0912 209.534 45.4209C210.864 46.7864 212.625 47.4333 214.781 47.4333C217.154 47.4333 219.058 46.6068 220.46 44.8818L220.89 47.2178H224.305V28.8175Z" fill="#333333"/>
<path d="M242.793 30.6143C241.427 29.2846 239.63 28.6018 237.474 28.6018C234.921 28.6018 232.945 29.5002 231.58 31.2253L231.148 28.8174H227.77V47.2177H231.652V37.9456C231.652 36.0769 232.083 34.6394 232.945 33.5612C233.807 32.4831 235.03 31.944 236.575 31.944C238.012 31.944 239.091 32.4112 239.845 33.3097C240.563 34.2441 240.959 35.5738 240.959 37.2987V47.2177H244.877V37.0831C244.877 34.1363 244.158 31.98 242.793 30.6143Z" fill="#333333"/>
<path d="M266.267 22.0612H262.387V31.3691C261.74 30.5066 260.948 29.8597 259.943 29.3566C258.936 28.8534 257.75 28.6019 256.421 28.6019C254.767 28.6019 253.259 28.9972 251.965 29.7878C250.634 30.5785 249.592 31.6566 248.838 33.0941C248.083 34.5316 247.725 36.1488 247.725 38.0176C247.725 39.9583 248.083 41.6113 248.838 43.0489C249.557 44.4865 250.599 45.5646 251.928 46.3192C253.222 47.074 254.732 47.4333 256.421 47.4333C258.936 47.4333 260.948 46.4631 262.422 44.4505L262.889 47.2177H266.267V22.0612ZM260.948 42.4738C259.943 43.624 258.649 44.163 257.068 44.163C255.451 44.163 254.157 43.624 253.187 42.4738C252.18 41.3239 251.713 39.8505 251.713 38.0176C251.713 36.2207 252.18 34.7832 253.187 33.6332C254.157 32.4832 255.451 31.9082 257.068 31.9082C258.649 31.9082 259.943 32.4832 260.948 33.6332C261.919 34.7832 262.422 36.2566 262.422 38.0894C262.422 39.8863 261.919 41.3599 260.948 42.4738Z" fill="#333333"/>
<path fill-rule="evenodd" clip-rule="evenodd" d="M57.0306 36.2265L46.2045 47.0527C46.0236 47.2335 45.7783 47.3352 45.5225 47.3352C45.2667 47.3352 45.0213 47.2335 44.8405 47.0527L40.2825 42.4947C40.1016 42.3139 40 42.0685 40 41.8127C40 41.5568 40.1016 41.3116 40.2825 41.1306L46.0636 35.3496C46.2444 35.1687 46.3461 34.9234 46.3461 34.6676C46.3461 34.4118 46.2444 34.1664 46.0636 33.9856L40.2825 28.2045C40.1016 28.0236 40 27.7783 40 27.5225C40 27.2667 40.1016 27.0213 40.2825 26.8405L44.8405 22.2825C45.0213 22.1016 45.2667 22 45.5225 22C45.7783 22 46.0236 22.1016 46.2045 22.2825L57.0306 33.1086C57.444 33.5221 57.6761 34.0829 57.6761 34.6676C57.6761 35.2523 57.444 35.813 57.0306 36.2265Z" fill="#ADA1ED"/>
<path fill-rule="evenodd" clip-rule="evenodd" d="M64.6908 36.2265L53.8647 47.0527C53.6838 47.2335 53.4384 47.3352 53.1826 47.3352C52.9268 47.3352 52.6815 47.2335 52.5006 47.0527L47.9427 42.4947C47.7618 42.3139 47.6602 42.0685 47.6602 41.8127C47.6602 41.5568 47.7618 41.3116 47.9427 41.1306L53.7237 35.3496C53.9046 35.1687 54.0062 34.9234 54.0062 34.6676C54.0062 34.4118 53.9046 34.1664 53.7237 33.9856L47.9427 28.2045C47.7618 28.0236 47.6602 27.7783 47.6602 27.5225C47.6602 27.2667 47.7618 27.0213 47.9427 26.8405L52.5006 22.2825C52.6815 22.1016 52.9268 22 53.1826 22C53.4384 22 53.6838 22.1016 53.8647 22.2825L64.6908 33.1086C65.1041 33.5221 65.3362 34.0829 65.3362 34.6676C65.3362 35.2523 65.1041 35.813 64.6908 36.2265Z" fill="#D75856"/>
<path fill-rule="evenodd" clip-rule="evenodd" d="M72.3515 36.2265L61.5253 47.0527C61.3444 47.2335 61.099 47.3352 60.8433 47.3352C60.5875 47.3352 60.3422 47.2335 60.1613 47.0527L55.6033 42.4947C55.4224 42.3139 55.3208 42.0685 55.3208 41.8127C55.3208 41.5568 55.4224 41.3116 55.6033 41.1306L61.3844 35.3496C61.5652 35.1687 61.6669 34.9234 61.6669 34.6676C61.6669 34.4118 61.5652 34.1664 61.3844 33.9856L55.6033 28.2045C55.4224 28.0236 55.3208 27.7783 55.3208 27.5225C55.3208 27.2667 55.4224 27.0213 55.6033 26.8405L60.1613 22.2825C60.3422 22.1016 60.5875 22 60.8433 22C61.099 22 61.3444 22.1016 61.5253 22.2825L72.3515 33.1086C72.7648 33.5221 72.997 34.0829 72.997 34.6676C72.997 35.2523 72.7648 35.813 72.3515 36.2265Z" fill="#E88149"/>
<path fill-rule="evenodd" clip-rule="evenodd" d="M80.0121 36.2265L69.186 47.0527C69.005 47.2335 68.7598 47.3352 68.5039 47.3352C68.2481 47.3352 68.0027 47.2335 67.8219 47.0527L63.264 42.4947C63.0831 42.3139 62.9814 42.0685 62.9814 41.8127C62.9814 41.5568 63.0831 41.3116 63.264 41.1306L69.045 35.3496C69.2258 35.1687 69.3275 34.9234 69.3275 34.6676C69.3275 34.4118 69.2258 34.1664 69.045 33.9856L63.264 28.2045C63.0831 28.0236 62.9814 27.7783 62.9814 27.5225C62.9814 27.2667 63.0831 27.0213 63.264 26.8405L67.8219 22.2825C68.0027 22.1016 68.2481 22 68.5039 22C68.7598 22 69.0052 22.1016 69.186 22.2825L80.0121 33.1086C80.4254 33.5221 80.6576 34.0829 80.6576 34.6676C80.6576 35.2523 80.4254 35.813 80.0121 36.2265Z" fill="#F4CA66"/>
</svg>
