<svg width="290" height="67" viewBox="0 0 290 67" fill="none" xmlns="http://www.w3.org/2000/svg">
<path d="M44.9 26.8V40H41.46V26.8H44.9ZM60.3272 26.8V40H56.5072L52.4072 32.86L51.4072 30.9H51.3872L51.4672 33.34V40H48.4272V26.8H52.2472L56.3472 33.94L57.3472 35.9H57.3672L57.2872 33.46V26.8H60.3272ZM75.5514 36.22C75.2981 37.14 74.8914 37.9 74.3314 38.5C73.7714 39.0867 73.1047 39.52 72.3314 39.8C71.5581 40.0667 70.7047 40.2 69.7714 40.2C68.4381 40.2 67.2847 39.9333 66.3114 39.4C65.3381 38.8533 64.5914 38.0733 64.0714 37.06C63.5514 36.0467 63.2914 34.8267 63.2914 33.4C63.2914 31.9733 63.5514 30.7533 64.0714 29.74C64.5914 28.7267 65.3381 27.9533 66.3114 27.42C67.2847 26.8733 68.4314 26.6 69.7514 26.6C70.6714 26.6 71.5181 26.7333 72.2914 27C73.0647 27.2533 73.7181 27.6467 74.2514 28.18C74.7847 28.7133 75.1647 29.4 75.3914 30.24L72.3714 31.46C72.1847 30.6333 71.8781 30.0667 71.4514 29.76C71.0381 29.4533 70.5114 29.3 69.8714 29.3C69.2447 29.3 68.6981 29.4533 68.2314 29.76C67.7781 30.0667 67.4247 30.5267 67.1714 31.14C66.9314 31.74 66.8114 32.4933 66.8114 33.4C66.8114 34.2933 66.9247 35.0467 67.1514 35.66C67.3781 36.2733 67.7181 36.7333 68.1714 37.04C68.6381 37.3467 69.2114 37.5 69.8914 37.5C70.5314 37.5 71.0714 37.3267 71.5114 36.98C71.9647 36.62 72.2714 36.0733 72.4314 35.34L75.5514 36.22ZM81.5047 26.8V40H78.0647V26.8H81.5047ZM90.1919 26.6C91.4185 26.6 92.4985 26.7933 93.4319 27.18C94.3785 27.5533 95.1985 28.1067 95.8919 28.84L94.2319 31.06C93.6585 30.46 93.0385 30.0133 92.3719 29.72C91.7185 29.4133 90.9719 29.26 90.1319 29.26C89.6385 29.26 89.2385 29.3133 88.9319 29.42C88.6252 29.5267 88.4052 29.6733 88.2719 29.86C88.1385 30.0467 88.0719 30.26 88.0719 30.5C88.0719 30.78 88.1985 31.02 88.4519 31.22C88.7185 31.4067 89.1452 31.5667 89.7319 31.7L91.9519 32.2C93.2719 32.5067 94.2385 32.9533 94.8519 33.54C95.4652 34.1267 95.7719 34.9067 95.7719 35.88C95.7719 36.8133 95.5319 37.6067 95.0519 38.26C94.5719 38.9 93.9119 39.3867 93.0719 39.72C92.2319 40.04 91.2719 40.2 90.1919 40.2C89.3119 40.2 88.4719 40.1067 87.6719 39.92C86.8719 39.72 86.1519 39.44 85.5119 39.08C84.8719 38.72 84.3319 38.3067 83.8919 37.84L85.5519 35.54C85.8852 35.9267 86.2919 36.2733 86.7719 36.58C87.2652 36.8733 87.7985 37.1067 88.3719 37.28C88.9585 37.4533 89.5519 37.54 90.1519 37.54C90.6185 37.54 91.0052 37.4933 91.3119 37.4C91.6319 37.3067 91.8652 37.1667 92.0119 36.98C92.1585 36.7933 92.2319 36.5733 92.2319 36.32C92.2319 36.04 92.1319 35.8067 91.9319 35.62C91.7319 35.42 91.3519 35.2533 90.7919 35.12L88.3519 34.58C87.6052 34.4067 86.9385 34.18 86.3519 33.9C85.7785 33.6067 85.3252 33.22 84.9919 32.74C84.6585 32.2467 84.4919 31.6333 84.4919 30.9C84.4919 30.0733 84.7185 29.34 85.1719 28.7C85.6252 28.0467 86.2785 27.5333 87.1319 27.16C87.9852 26.7867 89.0052 26.6 90.1919 26.6ZM101.963 26.8V40H98.5225V26.8H101.963ZM117.57 26.8L112.89 40H108.85L104.15 26.8H107.77L110.19 34.78L110.91 37.38L111.61 34.82L114.07 26.8H117.57ZM119.742 40V26.8H130.022V29.46H123.182V32.14H128.622V34.64H123.182V37.34H130.282V40H119.742ZM150.795 26.8L146.115 40H142.075L137.375 26.8H140.995L143.415 34.78L144.135 37.38L144.835 34.82L147.295 26.8H150.795ZM152.968 40V26.8H163.248V29.46H156.408V32.14H161.848V34.64H156.408V37.34H163.508V40H152.968ZM178.085 26.8V40H174.265L170.165 32.86L169.165 30.9H169.145L169.225 33.34V40H166.185V26.8H170.005L174.105 33.94L175.105 35.9H175.125L175.045 33.46V26.8H178.085ZM192.709 26.8V29.46H188.409V40H184.969V29.46H180.649V26.8H192.709ZM206.816 26.8V34.62C206.816 36.4867 206.316 37.8867 205.316 38.82C204.329 39.74 202.862 40.2 200.916 40.2C198.982 40.2 197.516 39.74 196.516 38.82C195.516 37.8867 195.016 36.4867 195.016 34.62V26.8H198.476V34.68C198.476 35.6267 198.676 36.3333 199.076 36.8C199.489 37.2667 200.102 37.5 200.916 37.5C201.742 37.5 202.356 37.2667 202.756 36.8C203.169 36.3333 203.376 35.6267 203.376 34.68V26.8H206.816ZM216.375 26.8C217.948 26.8 219.168 27.1733 220.035 27.92C220.915 28.6533 221.355 29.6333 221.355 30.86C221.355 32.2067 220.922 33.2333 220.055 33.94C219.188 34.6467 217.968 35 216.395 35L216.075 35.18H213.455V40H210.075V26.8H216.375ZM215.895 32.74C216.562 32.74 217.062 32.6067 217.395 32.34C217.728 32.0733 217.895 31.6467 217.895 31.06C217.895 30.4867 217.728 30.0667 217.395 29.8C217.062 29.5333 216.562 29.4 215.895 29.4H213.455V32.74H215.895ZM217.915 33.46L222.135 40H218.335L214.955 34.22L217.915 33.46ZM224.464 40V26.8H234.744V29.46H227.904V32.14H233.344V34.64H227.904V37.34H235.004V40H224.464ZM242.841 26.6C244.068 26.6 245.148 26.7933 246.081 27.18C247.028 27.5533 247.848 28.1067 248.541 28.84L246.881 31.06C246.308 30.46 245.688 30.0133 245.021 29.72C244.368 29.4133 243.621 29.26 242.781 29.26C242.288 29.26 241.888 29.3133 241.581 29.42C241.274 29.5267 241.054 29.6733 240.921 29.86C240.788 30.0467 240.721 30.26 240.721 30.5C240.721 30.78 240.848 31.02 241.101 31.22C241.368 31.4067 241.794 31.5667 242.381 31.7L244.601 32.2C245.921 32.5067 246.888 32.9533 247.501 33.54C248.114 34.1267 248.421 34.9067 248.421 35.88C248.421 36.8133 248.181 37.6067 247.701 38.26C247.221 38.9 246.561 39.3867 245.721 39.72C244.881 40.04 243.921 40.2 242.841 40.2C241.961 40.2 241.121 40.1067 240.321 39.92C239.521 39.72 238.801 39.44 238.161 39.08C237.521 38.72 236.981 38.3067 236.541 37.84L238.201 35.54C238.534 35.9267 238.941 36.2733 239.421 36.58C239.914 36.8733 240.448 37.1067 241.021 37.28C241.608 37.4533 242.201 37.54 242.801 37.54C243.268 37.54 243.654 37.4933 243.961 37.4C244.281 37.3067 244.514 37.1667 244.661 36.98C244.808 36.7933 244.881 36.5733 244.881 36.32C244.881 36.04 244.781 35.8067 244.581 35.62C244.381 35.42 244.001 35.2533 243.441 35.12L241.001 34.58C240.254 34.4067 239.588 34.18 239.001 33.9C238.428 33.6067 237.974 33.22 237.641 32.74C237.308 32.2467 237.141 31.6333 237.141 30.9C237.141 30.0733 237.368 29.34 237.821 28.7C238.274 28.0467 238.928 27.5333 239.781 27.16C240.634 26.7867 241.654 26.6 242.841 26.6Z" fill="#333333"/>
</svg>
