<svg width="195" height="74" viewBox="0 0 195 74" fill="none" xmlns="http://www.w3.org/2000/svg">
<path d="M40.9375 37V22.4545H47.2159C48.2955 22.4545 49.2401 22.6676 50.0497 23.0938C50.8594 23.5199 51.4891 24.1188 51.9389 24.8906C52.3887 25.6624 52.6136 26.5644 52.6136 27.5966C52.6136 28.6383 52.3816 29.5402 51.9176 30.3026C51.4583 31.0649 50.812 31.652 49.9787 32.0639C49.1501 32.4759 48.1818 32.6818 47.0739 32.6818H43.3239V29.6136H46.2784C46.7424 29.6136 47.1378 29.5331 47.4645 29.3722C47.7959 29.2064 48.0492 28.9721 48.2244 28.669C48.4044 28.366 48.4943 28.0085 48.4943 27.5966C48.4943 27.1799 48.4044 26.8248 48.2244 26.5312C48.0492 26.233 47.7959 26.0057 47.4645 25.8494C47.1378 25.6884 46.7424 25.608 46.2784 25.608H44.8864V37H40.9375ZM58.6114 22.4545V37H54.6625V22.4545H58.6114ZM60.6851 25.6364V22.4545H73.3271V25.6364H68.9521V37H65.0601V25.6364H60.6851ZM75.4133 37V22.4545H81.7201C82.8281 22.4545 83.7585 22.6037 84.5113 22.902C85.2689 23.2003 85.8394 23.6217 86.2229 24.1662C86.6112 24.7107 86.8053 25.3523 86.8053 26.0909C86.8053 26.6259 86.687 27.1136 86.4502 27.554C86.2182 27.9943 85.8915 28.3636 85.4701 28.6619C85.0487 28.9555 84.5563 29.1591 83.9928 29.2727V29.4148C84.6178 29.4384 85.186 29.5971 85.6974 29.8906C86.2087 30.1795 86.6159 30.5795 86.919 31.0909C87.222 31.5975 87.3735 32.1941 87.3735 32.8807C87.3735 33.6761 87.1652 34.384 86.7485 35.0043C86.3366 35.6245 85.7495 36.1122 84.9871 36.4673C84.2248 36.8224 83.3157 37 82.2599 37H75.4133ZM79.3621 33.8466H81.2087C81.8716 33.8466 82.3688 33.7235 82.7002 33.4773C83.0317 33.2263 83.1974 32.857 83.1974 32.3693C83.1974 32.0284 83.1192 31.7396 82.963 31.5028C82.8067 31.2661 82.5842 31.0862 82.2954 30.9631C82.0113 30.84 81.668 30.7784 81.2656 30.7784H79.3621V33.8466ZM79.3621 28.3352H80.9815C81.3271 28.3352 81.6325 28.2808 81.8977 28.1719C82.1628 28.063 82.3688 27.9067 82.5156 27.7031C82.6671 27.4948 82.7428 27.2415 82.7428 26.9432C82.7428 26.4934 82.5818 26.1501 82.2599 25.9134C81.9379 25.6719 81.5307 25.5511 81.0383 25.5511H79.3621V28.3352ZM97.9806 22.4545H101.929V31.7727C101.929 32.8807 101.664 33.8395 101.134 34.6491C100.608 35.4541 99.8746 36.0767 98.9323 36.517C97.9901 36.9527 96.8963 37.1705 95.6511 37.1705C94.3963 37.1705 93.2978 36.9527 92.3556 36.517C91.4134 36.0767 90.6795 35.4541 90.1539 34.6491C89.6331 33.8395 89.3727 32.8807 89.3727 31.7727V22.4545H93.3215V31.4318C93.3215 31.8816 93.421 32.2841 93.6198 32.6392C93.8187 32.9896 94.0933 33.2642 94.4437 33.4631C94.7988 33.6619 95.2013 33.7614 95.6511 33.7614C96.1056 33.7614 96.5081 33.6619 96.8585 33.4631C97.2088 33.2642 97.4835 32.9896 97.6823 32.6392C97.8812 32.2841 97.9806 31.8816 97.9806 31.4318V22.4545ZM104.406 37V22.4545H108.355V33.8182H114.236V37H104.406ZM116.432 37V22.4545H120.381V33.8182H126.262V37H116.432Z" fill="#010101"/>
<path d="M44.9148 37.4545L47.8977 47.7102H48.0114L50.9943 37.4545H55.4545L50.6534 52H45.2557L40.4545 37.4545H44.9148ZM57.4555 52V37.4545H67.9384V40.6364H61.4043V43.1364H67.3987V46.3182H61.4043V48.8182H67.91V52H57.4555ZM83.0821 37.4545V52H79.7866L74.531 44.358H74.4457V52H70.4969V37.4545H73.8491L79.0196 45.0682H79.1332V37.4545H83.0821ZM85.1523 40.6364V37.4545H97.7943V40.6364H93.4193V52H89.5273V40.6364H85.1523ZM108.488 37.4545H112.437V46.7727C112.437 47.8807 112.172 48.8395 111.642 49.6491C111.116 50.4541 110.382 51.0767 109.44 51.517C108.498 51.9527 107.404 52.1705 106.159 52.1705C104.904 52.1705 103.806 51.9527 102.863 51.517C101.921 51.0767 101.187 50.4541 100.662 49.6491C100.141 48.8395 99.8805 47.8807 99.8805 46.7727V37.4545H103.829V46.4318C103.829 46.8816 103.929 47.2841 104.128 47.6392C104.326 47.9896 104.601 48.2642 104.951 48.4631C105.307 48.6619 105.709 48.7614 106.159 48.7614C106.613 48.7614 107.016 48.6619 107.366 48.4631C107.717 48.2642 107.991 47.9896 108.19 47.6392C108.389 47.2841 108.488 46.8816 108.488 46.4318V37.4545ZM114.914 52V37.4545H121.192C122.272 37.4545 123.217 37.651 124.026 38.044C124.836 38.437 125.466 39.0028 125.915 39.7415C126.365 40.4801 126.59 41.3655 126.59 42.3977C126.59 43.4394 126.358 44.3177 125.894 45.0327C125.435 45.7476 124.789 46.2874 123.955 46.652C123.127 47.0166 122.158 47.1989 121.05 47.1989H117.3V44.1307H120.255C120.719 44.1307 121.114 44.0739 121.441 43.9602C121.772 43.8419 122.026 43.6548 122.201 43.3991C122.381 43.1435 122.471 42.8097 122.471 42.3977C122.471 41.9811 122.381 41.6425 122.201 41.3821C122.026 41.117 121.772 40.9228 121.441 40.7997C121.114 40.6719 120.719 40.608 120.255 40.608H118.863V52H114.914ZM123.437 45.3239L127.073 52H122.783L119.232 45.3239H123.437ZM128.873 52V37.4545H139.356V40.6364H132.822V43.1364H138.817V46.3182H132.822V48.8182H139.328V52H128.873ZM149.756 42C149.718 41.5265 149.54 41.1572 149.223 40.892C148.911 40.6269 148.435 40.4943 147.796 40.4943C147.388 40.4943 147.055 40.544 146.794 40.6435C146.538 40.7382 146.349 40.8684 146.226 41.0341C146.103 41.1998 146.039 41.3892 146.034 41.6023C146.025 41.7775 146.055 41.9361 146.126 42.0781C146.202 42.2154 146.321 42.3409 146.482 42.4545C146.643 42.5634 146.849 42.6629 147.1 42.7528C147.35 42.8428 147.649 42.9233 147.994 42.9943L149.188 43.25C149.992 43.4205 150.681 43.6454 151.254 43.9247C151.827 44.2041 152.296 44.5331 152.661 44.9119C153.025 45.286 153.293 45.7074 153.463 46.1761C153.638 46.6449 153.728 47.1562 153.733 47.7102C153.728 48.6667 153.489 49.4763 153.016 50.1392C152.542 50.8021 151.865 51.3063 150.984 51.652C150.108 51.9976 149.055 52.1705 147.824 52.1705C146.56 52.1705 145.457 51.9834 144.514 51.6094C143.577 51.2353 142.848 50.66 142.327 49.8835C141.811 49.1023 141.55 48.1032 141.546 46.8864H145.296C145.319 47.3314 145.43 47.7055 145.629 48.0085C145.828 48.3116 146.108 48.5412 146.467 48.6974C146.832 48.8537 147.265 48.9318 147.767 48.9318C148.189 48.9318 148.541 48.8797 148.825 48.7756C149.109 48.6714 149.325 48.527 149.472 48.3423C149.618 48.1577 149.694 47.947 149.699 47.7102C149.694 47.4877 149.621 47.2936 149.479 47.1278C149.341 46.9574 149.114 46.8059 148.797 46.6733C148.48 46.536 148.051 46.4081 147.511 46.2898L146.063 45.9773C144.775 45.6979 143.759 45.2315 143.016 44.5781C142.277 43.92 141.91 43.0227 141.915 41.8864C141.91 40.9631 142.156 40.1558 142.653 39.4645C143.155 38.7685 143.849 38.2263 144.734 37.8381C145.625 37.4498 146.645 37.2557 147.796 37.2557C148.97 37.2557 149.985 37.4522 150.842 37.8452C151.699 38.2382 152.36 38.7921 152.824 39.5071C153.293 40.2173 153.529 41.0483 153.534 42H149.756Z" fill="#A7A9AC"/>
</svg>
